# This file uses centimeters as units for non-parametric coordinates.

mtllib ramp.mtl
g default
v 1.286632 -0.000000 0.726297
v 1.304439 0.035607 0.755966
v 1.267622 0.037335 0.724125
v 2.315080 0.031484 0.755966
v 2.311200 -0.000000 0.724344
v 2.356009 -0.000000 0.724347
v 2.360678 0.031726 0.755966
v 2.193210 1.730193 0.777399
v 2.193890 1.716914 0.734673
v 2.162505 1.683329 0.733474
v 2.161549 1.697672 0.778136
v 2.599686 1.730182 0.777365
v 2.600407 1.716914 0.734673
v 2.555677 1.716914 0.734674
v 2.554979 1.730182 0.777365
v 2.280204 0.752272 -2.196907
v 2.315289 0.784059 -2.182960
v 2.316203 0.770077 -2.226592
v 2.653527 0.770248 -2.226059
v 2.652808 0.783892 -2.183485
v 2.697537 0.783892 -2.183485
v 2.698235 0.770248 -2.226059
v 2.306520 0.033120 -4.520875
v 2.298897 -0.000000 -4.531310
v 2.269827 0.049775 -4.379233
v 2.643754 -0.000000 -4.477346
v 2.653673 0.043881 -4.487374
v 2.698334 0.044364 -4.485871
v 2.688797 -0.000000 -4.482207
v 2.193671 1.270101 0.770072
v 2.161549 1.331587 0.777434
v 2.162407 1.271306 0.731243
v 2.149103 1.226392 0.723624
v 2.185628 1.228151 0.755966
v 6.868015 -0.000000 0.726297
v 6.887024 0.037335 0.724125
v 6.850208 0.035607 0.755966
v 5.960975 1.270101 0.770072
v 5.969019 1.228151 0.755966
v 6.005544 1.226392 0.723624
v 5.992243 1.271227 0.731339
v 5.993098 1.331587 0.777434
v 5.961436 1.730193 0.777399
v 5.993098 1.697672 0.778136
v 5.992142 1.683329 0.733474
v 5.960757 1.716914 0.734673
v 5.839357 0.784059 -2.182960
v 5.874442 0.752273 -2.196908
v 5.838443 0.770077 -2.226592
v 2.312838 0.557068 -2.889728
v 2.273883 0.543310 -2.863477
v 2.281447 0.649965 -2.530079
v 2.310157 0.570844 -2.846839
v 5.844489 0.570844 -2.846839
v 5.873199 0.649965 -2.530080
v 5.880763 0.543310 -2.863477
v 5.841809 0.557068 -2.889728
v 5.848127 0.033120 -4.520875
v 5.884820 0.049775 -4.379233
v 5.855749 -0.000000 -4.531310
v 2.653527 0.557053 -2.889775
v 2.653527 0.570725 -2.847210
v 2.698235 0.570725 -2.847210
v 2.698235 0.557053 -2.889775
v 5.522471 1.268857 0.769162
v 5.525398 1.227298 0.755966
v 5.571884 1.228461 0.755966
v 5.567178 1.268857 0.769162
v 5.960409 1.463263 0.917811
v 5.960409 1.429267 0.886484
v 5.993098 1.468423 0.878102
v 2.194237 1.463263 0.917811
v 2.161549 1.468423 0.878102
v 2.194237 1.429267 0.886484
v 5.522471 1.462668 0.917123
v 5.522328 1.429885 0.886936
v 5.567178 1.430001 0.887021
v 5.567178 1.462668 0.917123
v 5.968992 1.884915 1.405257
v 5.993098 1.848105 1.303035
v 5.968992 1.914780 1.388818
v 2.185655 1.884915 1.405257
v 2.185655 1.914780 1.388818
v 2.161549 1.848105 1.303035
v 2.554979 1.907420 1.364438
v 2.554979 1.868254 1.385997
v 2.599686 1.868254 1.385997
v 2.599686 1.907420 1.364438
v 5.522471 1.730183 0.777366
v 5.567178 1.730182 0.777366
v 5.566497 1.716914 0.734673
v 5.521766 1.716914 0.734673
v 5.426740 0.783892 -2.183485
v 5.471469 0.783892 -2.183485
v 5.470765 0.770248 -2.226059
v 5.426058 0.770248 -2.226059
v 5.426058 0.570725 -2.847210
v 5.470765 0.570725 -2.847210
v 5.470765 0.557053 -2.889775
v 5.426058 0.557053 -2.889775
v 5.425960 0.044361 -4.485881
v 5.470623 0.043888 -4.487352
v 5.480324 -0.000000 -4.477390
v 5.435295 -0.000000 -4.482145
v 5.760872 -0.000000 0.724347
v 5.805677 -0.000000 0.724344
v 5.801873 0.031487 0.755966
v 5.756312 0.031724 0.755966
v 2.554979 1.268857 0.769162
v 2.548747 1.227298 0.755966
v 2.595722 1.228461 0.755966
v 2.599686 1.268857 0.769162
v 2.554979 1.462668 0.917123
v 2.554836 1.429885 0.886936
v 2.599686 1.430001 0.887021
v 2.599686 1.462668 0.917123
v 5.522471 1.868254 1.385997
v 5.567178 1.868254 1.385997
v 5.567178 1.907420 1.364438
v 5.522471 1.907420 1.364438
v 2.356009 -0.480949 0.724347
v 2.311200 -0.480949 0.724344
v 2.643754 -0.480949 -4.477346
v 2.688797 -0.480949 -4.482207
v 5.435295 -0.480949 -4.482145
v 5.480324 -0.480949 -4.477390
v 5.805677 -0.480949 0.724344
v 5.760872 -0.480949 0.724347
v 2.298897 -0.480949 -4.531310
v 1.286632 -0.480949 0.726297
v 5.855749 -0.480949 -4.531310
v 6.868015 -0.480949 0.726297
vt 0.043267 0.060489
vt 0.046484 0.060676
vt 0.047556 0.500365
vt 0.043267 0.513467
vt 0.046335 0.057933
vt 0.148929 0.060719
vt 0.090077 0.369772
vt 0.046121 0.512568
vt 0.001830 0.513467
vt 0.001830 0.060489
vt 0.149081 0.057933
vt 0.152799 0.060063
vt 0.099266 0.341048
vt 0.091263 0.372034
vt 0.152695 0.056717
vt 0.157993 0.056083
vt 0.188298 0.059871
vt 0.108081 0.312343
vt 0.092449 0.368339
vt 0.166408 0.046688
vt 0.169782 0.047410
vt 0.189533 0.056023
vt 0.191191 0.059767
vt 0.110819 0.311141
vt 0.109615 0.314900
vt 0.169337 0.043989
vt 0.202494 0.010799
vt 0.192335 0.056086
vt 0.205665 0.001992
vt 0.208239 0.003408
vt 0.259769 0.454783
vt 0.256552 0.454970
vt 0.256552 0.001992
vt 0.260841 0.015094
vt 0.259620 0.457526
vt 0.215115 0.454970
vt 0.215115 0.001992
vt 0.259406 0.002891
vt 0.303362 0.145687
vt 0.362214 0.454740
vt 0.362366 0.457526
vt 0.304547 0.143425
vt 0.366077 0.455404
vt 0.312551 0.174411
vt 0.365980 0.458742
vt 0.371277 0.459376
vt 0.305734 0.147120
vt 0.321365 0.203116
vt 0.401582 0.455588
vt 0.402818 0.459436
vt 0.383067 0.468049
vt 0.379693 0.468771
vt 0.322899 0.200559
vt 0.404476 0.455692
vt 0.324104 0.204318
vt 0.405620 0.459373
vt 0.415779 0.504660
vt 0.382622 0.471470
vt 0.421523 0.512051
vt 0.418950 0.513467
vt 0.704811 0.905874
vt 0.704810 0.909735
vt 0.256650 0.881083
vt 0.256231 0.877202
vt 0.252001 0.910795
vt 0.704979 0.998008
vt 0.256236 0.640573
vt 0.704811 0.612522
vt 0.256646 0.636693
vt 0.704810 0.608662
vt 0.252001 0.604348
vt 0.704979 0.517135
vt 0.428930 0.058351
vt 0.428872 0.054670
vt 0.460041 0.054673
vt 0.460101 0.058351
vt 0.460041 0.004093
vt 0.428221 0.001992
vt 0.463892 0.054673
vt 0.463954 0.058351
vt 0.468469 0.309770
vt 0.439390 0.309725
vt 0.463892 0.004093
vt 0.715710 0.054673
vt 0.715649 0.058351
vt 0.472323 0.309770
vt 0.439468 0.313484
vt 0.468531 0.313438
vt 0.715710 0.004093
vt 0.719562 0.054673
vt 0.719503 0.058351
vt 0.707462 0.309770
vt 0.472383 0.313438
vt 0.468531 0.366954
vt 0.438947 0.366922
vt 0.719562 0.004093
vt 0.753530 0.054670
vt 0.753471 0.058351
vt 0.711316 0.309770
vt 0.707403 0.313438
vt 0.472383 0.366954
vt 0.439178 0.370618
vt 0.468531 0.370622
vt 0.754181 0.001992
vt 0.743012 0.309725
vt 0.711255 0.313438
vt 0.707403 0.366954
vt 0.472383 0.370622
vt 0.468544 0.508265
vt 0.438634 0.511152
vt 0.742933 0.313484
vt 0.711255 0.366954
vt 0.707403 0.370622
vt 0.472391 0.508136
vt 0.743454 0.366922
vt 0.711255 0.370622
vt 0.707395 0.508137
vt 0.743223 0.370618
vt 0.711243 0.508263
vt 0.743767 0.511152
vt 0.754766 0.907085
vt 0.754786 0.903156
vt 0.857893 0.882906
vt 0.857793 0.886953
vt 0.752053 0.907419
vt 0.752053 0.903559
vt 0.754786 0.610600
vt 0.857793 0.630495
vt 0.861374 0.886416
vt 0.861374 0.882564
vt 0.755121 0.994159
vt 0.857867 0.918238
vt 0.752053 0.995693
vt 0.710616 0.907419
vt 0.710616 0.903559
vt 0.752053 0.610207
vt 0.857893 0.626490
vt 0.754766 0.606674
vt 0.861374 0.630747
vt 0.861481 0.917545
vt 0.875257 0.882564
vt 0.875247 0.886428
vt 0.710616 0.995693
vt 0.710616 0.610207
vt 0.752053 0.606347
vt 0.861374 0.626895
vt 0.755121 0.516353
vt 0.857867 0.592274
vt 0.875247 0.630759
vt 0.875194 0.917496
vt 0.878072 0.886416
vt 0.878072 0.882564
vt 0.710616 0.606347
vt 0.752053 0.514819
vt 0.861481 0.592967
vt 0.875257 0.626895
vt 0.878072 0.630747
vt 0.878123 0.917496
vt 0.913016 0.882564
vt 0.913016 0.886416
vt 0.710616 0.514819
vt 0.875194 0.593015
vt 0.878072 0.626895
vt 0.913016 0.630747
vt 0.914451 0.918236
vt 0.916390 0.886416
vt 0.916390 0.882564
vt 0.878123 0.593015
vt 0.913016 0.626895
vt 0.916390 0.630747
vt 0.917024 0.918236
vt 0.914451 0.592276
vt 0.916390 0.626895
vt 0.917024 0.592276
vt 0.204926 0.823581
vt 0.202073 0.822924
vt 0.201145 0.793015
vt 0.204926 0.793869
vt 0.201104 0.789167
vt 0.204926 0.789989
vt 0.246363 0.793869
vt 0.246363 0.823581
vt 0.201104 0.554164
vt 0.204926 0.553360
vt 0.246363 0.789989
vt 0.201145 0.550316
vt 0.204926 0.549480
vt 0.246363 0.553360
vt 0.202073 0.517791
vt 0.204926 0.517135
vt 0.246363 0.549480
vt 0.246363 0.517135
vn -0.981776 -0.017835 -0.189202
vn -0.960049 -0.208256 -0.186910
vn -0.960112 -0.207889 -0.186995
vn -0.981942 -0.003522 -0.189152
vn -0.000657 -0.674350 0.738412
vn -0.000657 -0.674350 0.738412
vn -0.000562 -0.675620 0.737250
vn -0.000540 -0.675919 0.736976
vn -0.592028 0.438312 0.676302
vn -0.592028 0.438312 0.676302
vn -0.592028 0.438312 0.676302
vn -0.592028 0.438312 0.676303
vn 0.000000 -0.000000 1.000000
vn -0.000000 -0.000000 1.000000
vn 0.000000 -0.008384 0.999965
vn 0.000015 -0.007384 0.999973
vn 0.000000 -1.000000 0.000000
vn 0.000000 -1.000000 0.000000
vn 0.000000 -1.000000 0.000000
vn 0.000000 -1.000000 0.000000
vn 0.000021 -0.705933 0.708278
vn 0.000028 -0.705939 0.708273
vn -0.000027 -0.705938 0.708273
vn -0.000021 -0.705933 0.708278
vn -0.778892 0.599773 -0.183301
vn -0.776557 0.602347 -0.184763
vn -0.783059 0.595129 -0.180669
vn -0.783059 0.595129 -0.180669
vn -0.000000 0.952537 -0.304423
vn -0.000000 0.957171 -0.289522
vn -0.000000 0.957167 -0.289536
vn -0.000000 0.952535 -0.304430
vn -0.648416 0.717327 -0.254950
vn -0.648918 0.716960 -0.254703
vn -0.647551 0.717992 -0.255276
vn -0.638087 0.726801 -0.254176
vn -0.999997 0.000025 -0.002459
vn -0.998690 0.026083 -0.044033
vn -0.995835 0.074118 -0.053087
vn -0.999960 0.000090 -0.008987
vn 0.000000 0.957166 -0.289540
vn -0.000000 0.957324 -0.289017
vn 0.000000 0.957324 -0.289017
vn 0.000000 0.952537 -0.304424
vn 0.000000 0.957166 -0.289541
vn 0.000000 0.952537 -0.304424
vn 0.000000 0.952496 -0.304551
vn -0.000000 0.952496 -0.304552
vn -0.570174 0.783968 -0.245551
vn -0.512342 0.819782 -0.255860
vn -0.568600 0.785146 -0.245438
vn 0.000000 0.952101 -0.305783
vn -0.000000 0.952496 -0.304551
vn 0.000000 0.952101 -0.305783
vn -0.000000 0.952101 -0.305783
vn -0.000000 0.952088 -0.305824
vn 0.000000 0.952088 -0.305824
vn -0.000000 0.952496 -0.304551
vn -0.000000 0.952101 -0.305783
vn -0.540297 0.801183 -0.257264
vn -0.786771 0.595311 -0.163083
vn -0.811976 0.564152 -0.149758
vn -0.538447 0.802433 -0.257248
vn 0.152806 -0.001459 -0.988255
vn 0.125720 -0.023389 -0.991790
vn 0.099160 -0.043737 -0.994110
vn 0.123704 -0.002896 -0.992315
vn -0.000000 0.952088 -0.305824
vn 0.000000 0.952088 -0.305824
vn 0.000000 0.952088 -0.305824
vn -0.000000 0.952088 -0.305824
vn -0.001648 -0.006274 -0.999979
vn -0.000436 -0.083884 -0.996475
vn 0.000448 -0.083894 -0.996475
vn 0.001654 -0.006292 -0.999979
vn 0.000059 -0.539213 0.842170
vn 0.000004 -0.003762 0.999993
vn 0.000131 -0.546066 0.837742
vn -0.689277 -0.406515 0.599702
vn -0.720538 -0.287547 0.630985
vn -0.682590 -0.435490 0.586873
vn -0.752216 -0.472641 0.459109
vn -0.820163 0.552986 -0.146762
vn -0.945599 0.311578 -0.093600
vn 0.000633 -0.674336 0.738425
vn 0.000633 -0.674336 0.738425
vn 0.000523 -0.675848 0.737041
vn 0.000543 -0.675564 0.737301
vn 0.960049 -0.208256 -0.186910
vn 0.981776 -0.017835 -0.189202
vn 0.981942 -0.003522 -0.189152
vn 0.960112 -0.207889 -0.186995
vn 0.592028 0.438311 0.676304
vn 0.592028 0.438311 0.676304
vn 0.592028 0.438311 0.676304
vn 0.592028 0.438311 0.676304
vn 0.719961 -0.287910 0.631478
vn 0.689147 -0.406635 0.599770
vn 0.752216 -0.472640 0.459111
vn 0.682589 -0.435490 0.586873
vn -0.000009 -0.003888 0.999992
vn -0.000143 -0.540373 0.841425
vn -0.000032 -0.546432 0.837504
vn -0.000007 -0.007563 0.999971
vn 0.995841 0.074049 -0.053074
vn 0.820155 0.552998 -0.146763
vn 0.811975 0.564153 -0.149758
vn 0.945516 0.311818 -0.093639
vn 0.999960 0.000091 -0.008981
vn 0.998690 0.026076 -0.044031
vn 0.999997 0.000025 -0.002456
vn 0.000000 0.957171 -0.289523
vn 0.000000 0.952537 -0.304423
vn 0.000000 0.952535 -0.304430
vn 0.000000 0.957167 -0.289536
vn 0.776554 0.602351 -0.184763
vn 0.778889 0.599777 -0.183302
vn 0.783056 0.595132 -0.180670
vn 0.783056 0.595132 -0.180670
vn 0.648908 0.716968 -0.254705
vn 0.648407 0.717335 -0.254951
vn 0.638077 0.726809 -0.254178
vn 0.647541 0.718000 -0.255278
vn 0.000000 0.952496 -0.304551
vn 0.000000 0.952101 -0.305783
vn 0.000000 0.952101 -0.305783
vn 0.000000 0.952496 -0.304552
vn 0.570163 0.783975 -0.245555
vn 0.568589 0.785153 -0.245442
vn 0.512337 0.819785 -0.255860
vn -0.000000 0.952088 -0.305824
vn 0.000000 0.952088 -0.305824
vn -0.000000 0.952088 -0.305824
vn 0.000000 0.952088 -0.305824
vn 0.000000 0.952088 -0.305824
vn -0.000000 0.952088 -0.305824
vn 0.538450 0.802431 -0.257249
vn 0.786772 0.595310 -0.163083
vn 0.540300 0.801181 -0.257264
vn -0.115619 -0.019908 -0.993094
vn -0.140510 -0.001245 -0.990079
vn -0.114961 -0.002577 -0.993367
vn -0.092638 -0.039360 -0.994922
vn -0.000000 0.952088 -0.305824
vn -0.000000 0.952088 -0.305824
vn -0.000001 -0.542344 0.840156
vn -0.000041 -0.607162 0.794578
vn -0.000000 -0.606830 0.794832
vn 0.000000 -0.008521 0.999964
vn -0.000001 -0.541744 0.840544
vn -0.000000 -0.000000 1.000000
vn -0.000000 0.000000 1.000000
vn 0.769955 -0.481965 0.418185
vn 0.771123 -0.481952 0.416042
vn 0.771123 -0.481952 0.416042
vn -0.000049 -0.607091 0.794632
vn -0.000017 -0.751443 0.659798
vn -0.000014 -0.751372 0.659879
vn 0.000017 -0.751435 0.659807
vn 0.000049 -0.607094 0.794630
vn 0.000048 -0.607160 0.794579
vn 0.000017 -0.751369 0.659882
vn -0.769955 -0.481966 0.418184
vn -0.771124 -0.481952 0.416041
vn -0.771124 -0.481952 0.416041
vn 0.000000 -0.751338 0.659917
vn 0.000000 -0.756304 0.654221
vn 0.000000 -0.756304 0.654221
vn 0.000000 -0.751329 0.659928
vn -0.000000 -0.606812 0.794845
vn -0.061868 0.481285 0.874378
vn -0.061868 0.481285 0.874378
vn -0.054903 0.481482 0.874735
vn -0.054903 0.481482 0.874735
vn 0.067287 0.481116 0.874071
vn 0.067287 0.481116 0.874071
vn 0.059125 0.481365 0.874524
vn 0.059125 0.481365 0.874524
vn 0.000000 -0.756304 0.654221
vn 0.000000 -0.756304 0.654221
vn 0.000000 0.482211 0.876055
vn 0.000000 0.482211 0.876055
vn 0.000000 0.482211 0.876055
vn 0.000000 0.482211 0.876055
vn 0.000000 0.957324 -0.289017
vn 0.000000 0.957324 -0.289017
vn 0.000000 0.952088 -0.305824
vn -0.000000 0.952088 -0.305824
vn 0.000000 -1.000000 0.000000
vn -0.000000 -1.000000 0.000000
vn -0.000000 -1.000000 0.000000
vn 0.000000 -1.000000 0.000000
vn 0.000000 -0.000000 1.000000
vn -0.000000 0.952088 -0.305824
vn 0.000000 -1.000000 0.000000
vn 0.000000 -1.000000 0.000000
vn 0.813487 0.562205 -0.148879
vn -0.813487 0.562205 -0.148879
vn -0.998620 0.027108 -0.044979
vn 0.998621 0.027099 -0.044976
vn 0.000000 -0.756304 0.654221
vn 1.000000 0.000000 0.000000
vn 1.000000 0.000000 0.000000
vn -0.000000 0.957324 -0.289017
vn -1.000000 0.000000 0.000000
vn -1.000000 0.000000 0.000000
vn 0.000000 0.952088 -0.305824
vn -0.000000 -1.000000 0.000000
vn -0.000000 -1.000000 0.000000
vn -0.000000 0.000000 1.000000
vn 0.000000 -0.756304 0.654221
vn 0.000000 0.957324 -0.289017
vn -0.635207 -0.281566 0.719189
vn -0.635207 -0.281566 0.719189
vn -0.635207 -0.281566 0.719189
vn -0.915505 0.296406 -0.272017
vn -0.736363 -0.195350 0.647772
vn -0.736363 -0.195350 0.647772
vn -0.736363 -0.195350 0.647772
vn 0.635213 -0.281568 0.719183
vn 0.635213 -0.281568 0.719183
vn 0.635213 -0.281568 0.719183
vn 0.735496 -0.195811 0.648616
vn 0.735496 -0.195811 0.648616
vn 0.735496 -0.195811 0.648616
vn 0.915504 0.296409 -0.272018
vn 0.975681 0.105700 0.192025
vn 0.975681 0.105700 0.192025
vn 0.975681 0.105700 0.192025
vn -0.975683 0.105691 0.192024
vn -0.975683 0.105691 0.192023
vn -0.975683 0.105691 0.192023
vn -0.000001 0.000000 1.000000
vn 0.001824 0.000000 0.999998
vn 0.001824 0.000000 0.999998
vn -0.000001 0.000000 1.000000
vn -0.001719 0.000000 -0.999999
vn 0.124950 0.000000 -0.992163
vn -0.116142 0.000000 -0.993233
vn 0.001726 0.000000 -0.999999
vn -0.001761 0.000000 0.999998
vn 0.000001 0.000000 1.000000
vn 0.000001 0.000000 1.000000
vn -0.001761 0.000000 0.999999
vn 0.154602 0.000000 -0.987977
vn 0.001907 0.000000 0.999998
vn 0.001907 0.000000 0.999998
vn -0.981965 0.000000 -0.189061
vn -0.981965 0.000000 -0.189061
vn -0.142165 0.000000 -0.989843
vn 0.981965 0.000000 -0.189061
vn 0.981965 0.000000 -0.189061
vn -0.001839 0.000000 0.999998
vn -0.001839 0.000000 0.999998
s 1
g pCube18
usemtl initialShadingGroup
f 1/1/1 3/2/2 25/3/3 24/4/4
s 2
f 2/131/5 1/133/6 5/125/7 4/121/8
s off
f 3/2/9 2/5/10 34/11/11 33/6/12
s 3
f 4/121/13 7/122/14 111/123/15 110/124/16
s 4
f 121/61/17 122/62/18 123/63/19 124/64/20
s 2
f 7/122/21 6/126/22 105/136/23 108/127/24
s 5
f 8/28/25 11/22/26 84/27/27 83/30/28
s 6
f 9/73/29 8/74/30 15/75/31 14/76/32
s 5
f 10/17/33 9/23/34 17/24/35 16/18/36
f 11/22/37 10/17/38 32/12/39 31/16/40
s 6
f 12/79/41 15/75/31 85/77/42 88/83/43
f 13/80/44 12/79/41 89/84/45 92/85/46
f 14/76/32 13/80/44 21/86/47 20/81/48
s 5
f 16/18/36 18/25/49 53/19/50 52/13/51
s 6
f 18/87/52 17/82/53 20/81/48 19/88/54
f 19/88/54 22/93/55 63/101/56 62/94/57
f 22/93/55 21/86/47 93/92/58 96/100/59
s 5
f 23/8/60 25/3/61 51/7/62 50/14/63
s 9
f 24/175/64 23/176/65 27/177/66 26/178/67
s 6
f 28/114/68 27/109/69 61/103/70 64/108/71
s 9
f 29/180/72 28/179/73 101/183/74 104/184/75
s 3
f 30/140/76 34/132/77 110/124/16 109/129/78
s 11
f 31/16/79 30/15/80 74/20/81 73/21/82
s 5
f 33/6/83 32/12/39 52/13/84 51/7/62
s 2
f 35/154/85 37/147/86 107/138/87 106/145/88
s 12
f 36/31/89 35/32/90 60/33/91 59/34/92
s off
f 37/35/93 36/31/94 40/40/95 39/41/96
s 13
f 38/45/97 42/46/98 71/51/99 70/52/100
s 3
f 39/148/101 38/155/102 68/146/103 67/137/104
s 15
f 41/43/105 40/40/106 56/39/107 55/44/108
f 42/46/109 41/43/105 45/49/110 44/50/111
s 6
f 43/97/112 46/98/113 91/91/114 90/90/115
s 15
f 44/50/116 43/56/117 81/59/118 80/57/119
f 46/54/120 45/49/121 48/48/122 47/55/123
s 6
f 47/105/124 49/111/125 95/106/126 94/99/127
s 15
f 49/53/128 48/48/122 55/44/129 54/47/130
s 6
f 50/102/131 53/95/132 62/94/57 61/103/70
f 54/115/133 57/118/134 99/116/135 98/112/136
s 15
f 57/42/137 56/39/107 59/34/138 58/38/139
s 9
f 58/189/140 60/190/141 103/187/142 102/186/143
s 6
f 64/108/71 63/101/56 97/107/144 100/113/145
s 3
f 65/139/146 68/146/103 77/156/147 76/149/148
f 66/128/149 65/139/146 112/130/150 111/123/15
f 67/137/104 66/128/149 108/127/151 107/138/152
s 13
f 69/58/153 71/51/99 80/57/154 79/60/155
s 3
f 70/162/156 69/168/157 78/163/158 77/156/147
f 72/158/159 74/150/160 114/142/161 113/151/162
s 11
f 73/21/82 72/26/163 82/29/164 84/27/165
s 3
f 75/157/166 78/163/158 118/169/167 117/164/168
f 76/149/148 75/157/166 116/152/169 115/141/170
s 22
f 79/172/171 81/174/172 119/173/173 118/169/174
f 83/171/175 82/165/176 86/160/177 85/166/178
s 3
f 87/159/179 86/160/180 113/151/162 116/152/169
s 22
f 88/167/181 87/159/182 117/164/183 120/170/184
s 6
f 90/90/115 89/84/45 120/89/185 119/96/186
f 92/85/46 91/91/114 94/99/127 93/92/58
f 96/100/59 95/106/126 98/112/136 97/107/144
f 100/113/145 99/116/135 102/119/187 101/117/188
s 4
f 125/67/189 126/69/190 127/70/191 128/68/192
s 3
f 109/129/78 112/130/150 115/141/170 114/142/161
f 2/131/193 4/121/13 110/124/16 34/132/77
s 6
f 9/73/29 14/76/32 20/81/48 17/82/53
f 50/102/131 61/103/70 27/109/69 23/110/194
s 4
f 129/65/195 123/63/19 122/62/18 130/66/196
s 15
f 36/31/197 59/34/138 56/39/107 40/40/106
s 5
f 25/3/61 3/2/198 33/6/83 51/7/62
f 52/13/84 32/12/39 10/17/38 16/18/199
s 6
f 18/87/52 19/88/54 62/94/57 53/95/132
s 15
f 41/43/105 55/44/108 48/48/200 45/49/110
s 3
f 72/158/159 113/151/162 86/160/180 82/165/201
f 30/140/76 109/129/78 114/142/161 74/150/160
s 15
f 42/46/109 44/50/111 80/57/202 71/51/203
s 6
f 85/77/42 15/75/31 8/74/30 83/78/204
s 5
f 11/22/37 31/16/40 73/21/205 84/27/206
s 6
f 91/91/114 46/98/113 47/105/124 94/99/127
f 98/112/136 95/106/126 49/111/125 54/115/133
f 102/119/187 99/116/135 57/118/134 58/120/207
s 4
f 127/70/191 126/69/190 131/71/208 132/72/209
s 3
f 67/137/104 107/138/152 37/147/210 39/148/101
f 77/156/147 68/146/103 38/155/102 70/162/156
f 118/169/167 78/163/158 69/168/157 79/172/211
s 6
f 43/97/112 90/90/115 119/96/186 81/104/212
f 13/80/44 92/85/46 93/92/58 21/86/47
f 63/101/56 22/93/55 96/100/59 97/107/144
f 28/114/68 64/108/71 100/113/145 101/117/188
s 4
f 121/61/17 124/64/20 125/67/189 128/68/192
s 3
f 111/123/15 7/122/14 108/127/151 66/128/149
f 115/141/170 112/130/150 65/139/146 76/149/148
f 87/159/179 116/152/169 75/157/166 117/164/168
s 6
f 120/89/185 89/84/45 12/79/41 88/83/43
s off
f 1/1/213 2/5/214 3/2/215
s 2
f 4/121/8 5/125/7 6/126/22 7/122/21
s 5
f 8/28/25 9/23/34 10/17/33 11/22/26
s 6
f 12/79/41 13/80/44 14/76/32 15/75/31
s 5
f 16/18/36 17/24/35 18/25/49
s 6
f 19/88/54 20/81/48 21/86/47 22/93/55
s 1
f 23/8/216 24/4/4 25/3/3
s 9
f 26/178/67 27/177/66 28/179/73 29/180/72
s 11
f 30/15/80 31/16/79 32/12/217 33/6/218 34/11/219
s off
f 35/32/220 36/31/221 37/35/222
s 13
f 38/45/97 39/41/223 40/40/224 41/43/225 42/46/98
s 15
f 43/56/117 44/50/116 45/49/121 46/54/120
f 47/55/123 48/48/122 49/53/128
s 5
f 50/14/63 51/7/62 52/13/51 53/19/50
s 15
f 54/47/130 55/44/129 56/39/107 57/42/137
s 12
f 58/38/226 59/34/92 60/33/91
s 6
f 61/103/70 62/94/57 63/101/56 64/108/71
s 3
f 65/139/146 66/128/149 67/137/104 68/146/103
s 13
f 69/58/153 70/52/100 71/51/99
s 11
f 72/26/163 73/21/82 74/20/81
s 3
f 75/157/166 76/149/148 77/156/147 78/163/158
s off
f 79/60/227 80/57/228 81/59/229
f 82/29/230 83/30/231 84/27/232
s 22
f 85/166/178 86/160/177 87/159/182 88/167/181
s 6
f 89/84/45 90/90/115 91/91/114 92/85/46
f 93/92/58 94/99/127 95/106/126 96/100/59
f 97/107/144 98/112/136 99/116/135 100/113/145
s 9
f 101/183/74 102/186/143 103/187/142 104/184/75
s 2
f 105/136/23 106/145/88 107/138/87 108/127/24
s 3
f 109/129/78 110/124/16 111/123/15 112/130/150
f 113/151/162 114/142/161 115/141/170 116/152/169
s 22
f 117/164/183 118/169/174 119/173/173 120/170/184
s 25
f 6/126/233 5/125/234 122/134/235 121/135/236
s 9
f 26/178/67 29/180/72 124/185/237 123/181/238
f 104/184/75 103/187/142 126/191/239 125/188/240
s 25
f 106/145/241 105/136/242 128/144/243 127/153/244
s 9
f 24/175/64 26/178/67 123/181/238 129/182/245
s 25
f 5/125/234 1/133/246 130/143/247 122/134/235
s 1
f 1/1/1 24/4/4 129/9/248 130/10/249
s 9
f 103/187/142 60/190/141 131/192/250 126/191/239
s 12
f 60/33/91 35/32/90 132/36/251 131/37/252
s 25
f 35/154/253 106/145/241 127/153/244 132/161/254
s 9
f 29/180/72 104/184/75 125/188/240 124/185/237
s 25
f 105/136/242 6/126/233 121/135/236 128/144/243
